<?xml version="1.0" encoding="UTF-8" standalone="no"?>
<!DOCTYPE svg PUBLIC "-//W3C//DTD SVG 1.0//EN"
 "http://www.w3.org/TR/2001/REC-SVG-20010904/DTD/svg10.dtd" [
 <!ATTLIST svg xmlns:xlink CDATA #FIXED "http://www.w3.org/1999/xlink">
]>
<!-- Generated by Graphviz version 2.20.2 (Tue Mar &#160;2 19:03:41 UTC 2010)
     For user: (www&#45;data) www&#45;data -->
<!-- Title: _anonymous_0 Pages: 1 -->
<svg width="2992pt" height="332pt"
 viewBox="0.00 0.00 2992.00 332.00" xmlns="http://www.w3.org/2000/svg" xmlns:xlink="http://www.w3.org/1999/xlink">
<g id="graph0" class="graph" transform="scale(1 1) rotate(0) translate(4 328)">
<title>_anonymous_0</title>
<polygon style="fill:white;stroke:white;" points="-4,4 -4,-328 2988,-328 2988,4 -4,4"/>
<!-- 0 -->
<g id="node1" class="node"><title>0</title>
<ellipse style="fill:none;stroke:black;" cx="1131" cy="-306" rx="170.246" ry="18"/>
<text text-anchor="middle" x="1131" y="-301.9" style="font-family:Times New Roman;font-size:14.00;">FL&#45;1732 Nat varius Donec Flavor</text>
</g>
<!-- 1 -->
<g id="node2" class="node"><title>1</title>
<ellipse style="fill:none;stroke:black;" cx="408" cy="-234" rx="96.0882" ry="18"/>
<text text-anchor="middle" x="408" y="-229.9" style="font-family:Times New Roman;font-size:14.00;">193 &#45; 390.000 lbs</text>
</g>
<!-- 0&#45;&gt;1 -->
<g id="edge2" class="edge"><title>0&#45;&gt;1</title>
<path style="fill:none;stroke:black;" d="M986,-297C860,-288 674,-273 513,-252 505,-251 497,-249 488,-248"/>
<polygon style="fill:black;stroke:black;" points="488.492,-244.529 478,-246 487.119,-251.393 488.492,-244.529"/>
</g>
<!-- 2 -->
<g id="node4" class="node"><title>2</title>
<ellipse style="fill:none;stroke:black;" cx="618" cy="-234" rx="96.0882" ry="18"/>
<text text-anchor="middle" x="618" y="-229.9" style="font-family:Times New Roman;font-size:14.00;">869 &#45; 140.000 lbs</text>
</g>
<!-- 0&#45;&gt;2 -->
<g id="edge4" class="edge"><title>0&#45;&gt;2</title>
<path style="fill:none;stroke:black;" d="M1020,-292C937,-282 823,-267 723,-252 715,-251 707,-249 699,-248"/>
<polygon style="fill:black;stroke:black;" points="699.492,-244.529 689,-246 698.119,-251.393 699.492,-244.529"/>
</g>
<!-- 3 -->
<g id="node6" class="node"><title>3</title>
<ellipse style="fill:none;stroke:black;" cx="822" cy="-234" rx="89.8356" ry="18"/>
<text text-anchor="middle" x="822" y="-229.9" style="font-family:Times New Roman;font-size:14.00;">733 &#45; 50.000 lbs</text>
</g>
<!-- 0&#45;&gt;3 -->
<g id="edge6" class="edge"><title>0&#45;&gt;3</title>
<path style="fill:none;stroke:black;" d="M1060,-290C1009,-278 941,-262 891,-250"/>
<polygon style="fill:black;stroke:black;" points="891.492,-246.529 881,-248 890.119,-253.393 891.492,-246.529"/>
</g>
<!-- 4 -->
<g id="node8" class="node"><title>4</title>
<ellipse style="fill:none;stroke:black;" cx="1026" cy="-234" rx="96.0882" ry="18"/>
<text text-anchor="middle" x="1026" y="-229.9" style="font-family:Times New Roman;font-size:14.00;">113 &#45; 220.000 lbs</text>
</g>
<!-- 0&#45;&gt;4 -->
<g id="edge8" class="edge"><title>0&#45;&gt;4</title>
<path style="fill:none;stroke:black;" d="M1105,-288C1092,-279 1074,-267 1059,-257"/>
<polygon style="fill:black;stroke:black;" points="1061.1,-254.2 1051,-251 1056.9,-259.8 1061.1,-254.2"/>
</g>
<!-- 5 -->
<g id="node10" class="node"><title>5</title>
<ellipse style="fill:none;stroke:black;" cx="1236" cy="-234" rx="96.0882" ry="18"/>
<text text-anchor="middle" x="1236" y="-229.9" style="font-family:Times New Roman;font-size:14.00;">2739 &#45; 27.000 lbs</text>
</g>
<!-- 0&#45;&gt;5 -->
<g id="edge10" class="edge"><title>0&#45;&gt;5</title>
<path style="fill:none;stroke:black;" d="M1157,-288C1171,-279 1188,-267 1203,-257"/>
<polygon style="fill:black;stroke:black;" points="1205.1,-259.8 1211,-251 1200.9,-254.2 1205.1,-259.8"/>
</g>
<!-- 39 -->
<g id="node12" class="node"><title>39</title>
<ellipse style="fill:none;stroke:black;" cx="1446" cy="-234" rx="96.0882" ry="18"/>
<text text-anchor="middle" x="1446" y="-229.9" style="font-family:Times New Roman;font-size:14.00;">870 &#45; 135.000 lbs</text>
</g>
<!-- 0&#45;&gt;39 -->
<g id="edge12" class="edge"><title>0&#45;&gt;39</title>
<path style="fill:none;stroke:black;" d="M1202,-290C1254,-278 1323,-262 1375,-250"/>
<polygon style="fill:black;stroke:black;" points="1375.88,-253.393 1385,-248 1374.51,-246.529 1375.88,-253.393"/>
</g>
<!-- 40 -->
<g id="node14" class="node"><title>40</title>
<ellipse style="fill:none;stroke:black;" cx="1650" cy="-234" rx="89.8356" ry="18"/>
<text text-anchor="middle" x="1650" y="-229.9" style="font-family:Times New Roman;font-size:14.00;">879 &#45; 23.000 lbs</text>
</g>
<!-- 0&#45;&gt;40 -->
<g id="edge14" class="edge"><title>0&#45;&gt;40</title>
<path style="fill:none;stroke:black;" d="M1245,-293C1330,-282 1448,-268 1551,-252 1559,-251 1566,-249 1574,-248"/>
<polygon style="fill:black;stroke:black;" points="1574.88,-251.393 1584,-246 1573.51,-244.529 1574.88,-251.393"/>
</g>
<!-- 41 -->
<g id="node16" class="node"><title>41</title>
<ellipse style="fill:none;stroke:black;" cx="1848" cy="-234" rx="89.8356" ry="18"/>
<text text-anchor="middle" x="1848" y="-229.9" style="font-family:Times New Roman;font-size:14.00;">258 &#45; 15.000 lbs</text>
</g>
<!-- 0&#45;&gt;41 -->
<g id="edge16" class="edge"><title>0&#45;&gt;41</title>
<path style="fill:none;stroke:black;" d="M1277,-297C1403,-288 1588,-273 1749,-252 1757,-251 1765,-250 1773,-249"/>
<polygon style="fill:black;stroke:black;" points="1773.88,-252.393 1783,-247 1772.51,-245.529 1773.88,-252.393"/>
</g>
<!-- 32 -->
<g id="node18" class="node"><title>32</title>
<ellipse style="fill:none;stroke:black;" cx="108" cy="-162" rx="84.0808" ry="18"/>
<text text-anchor="middle" x="108" y="-157.9" style="font-family:Times New Roman;font-size:14.00;">113 &#45; 0.156 lbs</text>
</g>
<!-- 5&#45;&gt;32 -->
<g id="edge18" class="edge"><title>5&#45;&gt;32</title>
<path style="fill:none;stroke:black;" d="M1170,-221C1157,-219 1144,-217 1131,-216 720,-172 612,-227 201,-180 193,-179 186,-178 178,-177"/>
<polygon style="fill:black;stroke:black;" points="178.492,-173.529 168,-175 177.119,-180.393 178.492,-173.529"/>
</g>
<!-- 33 -->
<g id="node20" class="node"><title>33</title>
<ellipse style="fill:none;stroke:black;" cx="294" cy="-162" rx="84.0808" ry="18"/>
<text text-anchor="middle" x="294" y="-157.9" style="font-family:Times New Roman;font-size:14.00;">743 &#45; 0.032 lbs</text>
</g>
<!-- 5&#45;&gt;33 -->
<g id="edge20" class="edge"><title>5&#45;&gt;33</title>
<path style="fill:none;stroke:black;" d="M1169,-221C1156,-219 1143,-217 1131,-216 801,-179 716,-219 387,-180 380,-179 372,-178 365,-177"/>
<polygon style="fill:black;stroke:black;" points="365.492,-173.529 355,-175 364.119,-180.393 365.492,-173.529"/>
</g>
<!-- 34 -->
<g id="node22" class="node"><title>34</title>
<ellipse style="fill:none;stroke:black;" cx="480" cy="-162" rx="84.0808" ry="18"/>
<text text-anchor="middle" x="480" y="-157.9" style="font-family:Times New Roman;font-size:14.00;">120 &#45; 0.574 lbs</text>
</g>
<!-- 5&#45;&gt;34 -->
<g id="edge22" class="edge"><title>5&#45;&gt;34</title>
<path style="fill:none;stroke:black;" d="M1169,-221C1156,-219 1143,-217 1131,-216 884,-186 819,-211 573,-180 566,-179 558,-178 551,-177"/>
<polygon style="fill:black;stroke:black;" points="551.492,-173.529 541,-175 550.119,-180.393 551.492,-173.529"/>
</g>
<!-- 35 -->
<g id="node24" class="node"><title>35</title>
<ellipse style="fill:none;stroke:black;" cx="672" cy="-162" rx="89.8356" ry="18"/>
<text text-anchor="middle" x="672" y="-157.9" style="font-family:Times New Roman;font-size:14.00;">1479 &#45; 2.430 lbs</text>
</g>
<!-- 5&#45;&gt;35 -->
<g id="edge24" class="edge"><title>5&#45;&gt;35</title>
<path style="fill:none;stroke:black;" d="M1167,-221C1155,-219 1143,-218 1131,-216 971,-194 930,-202 771,-180 763,-179 756,-177 748,-176"/>
<polygon style="fill:black;stroke:black;" points="748.492,-172.529 738,-174 747.119,-179.393 748.492,-172.529"/>
</g>
<!-- 36 -->
<g id="node26" class="node"><title>36</title>
<ellipse style="fill:none;stroke:black;" cx="864" cy="-162" rx="84.0808" ry="18"/>
<text text-anchor="middle" x="864" y="-157.9" style="font-family:Times New Roman;font-size:14.00;">193 &#45; 4.050 lbs</text>
</g>
<!-- 5&#45;&gt;36 -->
<g id="edge26" class="edge"><title>5&#45;&gt;36</title>
<path style="fill:none;stroke:black;" d="M1169,-221C1103,-209 1004,-189 937,-176"/>
<polygon style="fill:black;stroke:black;" points="937.492,-172.529 927,-174 936.119,-179.393 937.492,-172.529"/>
</g>
<!-- 37 -->
<g id="node28" class="node"><title>37</title>
<ellipse style="fill:none;stroke:black;" cx="1050" cy="-162" rx="84.0808" ry="18"/>
<text text-anchor="middle" x="1050" y="-157.9" style="font-family:Times New Roman;font-size:14.00;">733 &#45; 2.700 lbs</text>
</g>
<!-- 5&#45;&gt;37 -->
<g id="edge28" class="edge"><title>5&#45;&gt;37</title>
<path style="fill:none;stroke:black;" d="M1194,-218C1166,-207 1130,-193 1100,-182"/>
<polygon style="fill:black;stroke:black;" points="1101.56,-178.863 1091,-178 1098.72,-185.26 1101.56,-178.863"/>
</g>
<!-- 6 -->
<g id="node30" class="node"><title>6</title>
<ellipse style="fill:none;stroke:black;" cx="1236" cy="-162" rx="84.0808" ry="18"/>
<text text-anchor="middle" x="1236" y="-157.9" style="font-family:Times New Roman;font-size:14.00;">114 &#45; 0.006 lbs</text>
</g>
<!-- 5&#45;&gt;6 -->
<g id="edge30" class="edge"><title>5&#45;&gt;6</title>
<path style="fill:none;stroke:black;" d="M1236,-216C1236,-208 1236,-199 1236,-190"/>
<polygon style="fill:black;stroke:black;" points="1239.5,-190 1236,-180 1232.5,-190 1239.5,-190"/>
</g>
<!-- 19 -->
<g id="node32" class="node"><title>19</title>
<ellipse style="fill:none;stroke:black;" cx="1422" cy="-162" rx="84.0808" ry="18"/>
<text text-anchor="middle" x="1422" y="-157.9" style="font-family:Times New Roman;font-size:14.00;">128 &#45; 0.004 lbs</text>
</g>
<!-- 5&#45;&gt;19 -->
<g id="edge32" class="edge"><title>5&#45;&gt;19</title>
<path style="fill:none;stroke:black;" d="M1278,-218C1306,-207 1342,-193 1372,-182"/>
<polygon style="fill:black;stroke:black;" points="1373.28,-185.26 1381,-178 1370.44,-178.863 1373.28,-185.26"/>
</g>
<!-- 20 -->
<g id="node34" class="node"><title>20</title>
<ellipse style="fill:none;stroke:black;" cx="1608" cy="-162" rx="84.0808" ry="18"/>
<text text-anchor="middle" x="1608" y="-157.9" style="font-family:Times New Roman;font-size:14.00;">869 &#45; 0.459 lbs</text>
</g>
<!-- 5&#45;&gt;20 -->
<g id="edge34" class="edge"><title>5&#45;&gt;20</title>
<path style="fill:none;stroke:black;" d="M1303,-221C1369,-209 1468,-189 1535,-176"/>
<polygon style="fill:black;stroke:black;" points="1535.88,-179.393 1545,-174 1534.51,-172.529 1535.88,-179.393"/>
</g>
<!-- 21 -->
<g id="node36" class="node"><title>21</title>
<ellipse style="fill:none;stroke:black;" cx="1794" cy="-162" rx="84.0808" ry="18"/>
<text text-anchor="middle" x="1794" y="-157.9" style="font-family:Times New Roman;font-size:14.00;">879 &#45; 0.625 lbs</text>
</g>
<!-- 5&#45;&gt;21 -->
<g id="edge36" class="edge"><title>5&#45;&gt;21</title>
<path style="fill:none;stroke:black;" d="M1305,-221C1317,-219 1329,-218 1341,-216 1500,-194 1541,-203 1701,-180 1708,-179 1715,-177 1722,-176"/>
<polygon style="fill:black;stroke:black;" points="1722.88,-179.393 1732,-174 1721.51,-172.529 1722.88,-179.393"/>
</g>
<!-- 22 -->
<g id="node38" class="node"><title>22</title>
<ellipse style="fill:none;stroke:black;" cx="1986" cy="-162" rx="89.8356" ry="18"/>
<text text-anchor="middle" x="1986" y="-157.9" style="font-family:Times New Roman;font-size:14.00;">1118 &#45; 0.486 lbs</text>
</g>
<!-- 5&#45;&gt;22 -->
<g id="edge38" class="edge"><title>5&#45;&gt;22</title>
<path style="fill:none;stroke:black;" d="M1303,-221C1316,-219 1329,-217 1341,-216 1582,-187 1645,-209 1887,-180 1895,-179 1903,-178 1911,-177"/>
<polygon style="fill:black;stroke:black;" points="1911.88,-180.393 1921,-175 1910.51,-173.529 1911.88,-180.393"/>
</g>
<!-- 23 -->
<g id="node40" class="node"><title>23</title>
<ellipse style="fill:none;stroke:black;" cx="2178" cy="-162" rx="84.0808" ry="18"/>
<text text-anchor="middle" x="2178" y="-157.9" style="font-family:Times New Roman;font-size:14.00;">115 &#45; 0.006 lbs</text>
</g>
<!-- 5&#45;&gt;23 -->
<g id="edge40" class="edge"><title>5&#45;&gt;23</title>
<path style="fill:none;stroke:black;" d="M1303,-221C1316,-219 1329,-217 1341,-216 1670,-179 1756,-219 2085,-180 2092,-179 2100,-178 2107,-177"/>
<polygon style="fill:black;stroke:black;" points="2107.88,-180.393 2117,-175 2106.51,-173.529 2107.88,-180.393"/>
</g>
<!-- 38 -->
<g id="node42" class="node"><title>38</title>
<ellipse style="fill:none;stroke:black;" cx="2370" cy="-162" rx="89.8356" ry="18"/>
<text text-anchor="middle" x="2370" y="-157.9" style="font-family:Times New Roman;font-size:14.00;">870 &#45; 15.471 lbs</text>
</g>
<!-- 5&#45;&gt;38 -->
<g id="edge42" class="edge"><title>5&#45;&gt;38</title>
<path style="fill:none;stroke:black;" d="M1302,-221C1315,-219 1328,-217 1341,-216 1752,-172 1859,-225 2271,-180 2280,-179 2288,-178 2297,-177"/>
<polygon style="fill:black;stroke:black;" points="2297.88,-180.393 2307,-175 2296.51,-173.529 2297.88,-180.393"/>
</g>
<!-- 8 -->
<g id="node44" class="node"><title>8</title>
<ellipse style="fill:none;stroke:black;" cx="1041" cy="-90" rx="96.0882" ry="18"/>
<text text-anchor="middle" x="1041" y="-85.9" style="font-family:Times New Roman;font-size:14.00;">10165 &#45; 0.001 lbs</text>
</g>
<!-- 6&#45;&gt;8 -->
<g id="edge44" class="edge"><title>6&#45;&gt;8</title>
<path style="fill:none;stroke:black;" d="M1194,-146C1164,-135 1125,-121 1095,-110"/>
<polygon style="fill:black;stroke:black;" points="1095.58,-106.464 1085,-106 1092.98,-112.964 1095.58,-106.464"/>
</g>
<!-- 7 -->
<g id="node46" class="node"><title>7</title>
<ellipse style="fill:none;stroke:black;" cx="1239" cy="-90" rx="84.0808" ry="18"/>
<text text-anchor="middle" x="1239" y="-85.9" style="font-family:Times New Roman;font-size:14.00;">758 &#45; 0.006 lbs</text>
</g>
<!-- 6&#45;&gt;7 -->
<g id="edge46" class="edge"><title>6&#45;&gt;7</title>
<path style="fill:none;stroke:black;" d="M1237,-144C1238,-136 1238,-127 1238,-118"/>
<polygon style="fill:black;stroke:black;" points="1241.5,-118 1238,-108 1234.5,-118 1241.5,-118"/>
</g>
<!-- 24 -->
<g id="node48" class="node"><title>24</title>
<ellipse style="fill:none;stroke:black;" cx="2177" cy="-90" rx="84.0808" ry="18"/>
<text text-anchor="middle" x="2177" y="-85.9" style="font-family:Times New Roman;font-size:14.00;">758 &#45; 0.006 lbs</text>
</g>
<!-- 23&#45;&gt;24 -->
<g id="edge48" class="edge"><title>23&#45;&gt;24</title>
<path style="fill:none;stroke:black;" d="M2178,-144C2177,-136 2177,-127 2177,-118"/>
<polygon style="fill:black;stroke:black;" points="2180.5,-118 2177,-108 2173.5,-118 2180.5,-118"/>
</g>
<!-- 25 -->
<g id="node50" class="node"><title>25</title>
<ellipse style="fill:none;stroke:black;" cx="2369" cy="-90" rx="89.8356" ry="18"/>
<text text-anchor="middle" x="2369" y="-85.9" style="font-family:Times New Roman;font-size:14.00;">7454 &#45; 0.000 lbs</text>
</g>
<!-- 23&#45;&gt;25 -->
<g id="edge50" class="edge"><title>23&#45;&gt;25</title>
<path style="fill:none;stroke:black;" d="M2220,-146C2249,-135 2287,-121 2317,-110"/>
<polygon style="fill:black;stroke:black;" points="2318.28,-113.26 2326,-106 2315.44,-106.863 2318.28,-113.26"/>
</g>
<!-- 9 -->
<g id="node52" class="node"><title>9</title>
<ellipse style="fill:none;stroke:black;" cx="90" cy="-18" rx="89.8356" ry="18"/>
<text text-anchor="middle" x="90" y="-13.9" style="font-family:Times New Roman;font-size:14.00;">2946 &#45; 0.000 lbs</text>
</g>
<!-- 8&#45;&gt;9 -->
<g id="edge52" class="edge"><title>8&#45;&gt;9</title>
<path style="fill:none;stroke:black;" d="M946,-88C788,-83 463,-69 189,-36 181,-35 173,-34 165,-33"/>
<polygon style="fill:black;stroke:black;" points="165.492,-29.5292 155,-31 164.119,-36.3933 165.492,-29.5292"/>
</g>
<!-- 10 -->
<g id="node54" class="node"><title>10</title>
<ellipse style="fill:none;stroke:black;" cx="288" cy="-18" rx="89.8356" ry="18"/>
<text text-anchor="middle" x="288" y="-13.9" style="font-family:Times New Roman;font-size:14.00;">1101 &#45; 0.000 lbs</text>
</g>
<!-- 8&#45;&gt;10 -->
<g id="edge54" class="edge"><title>8&#45;&gt;10</title>
<path style="fill:none;stroke:black;" d="M948,-85C821,-78 587,-62 387,-36 379,-35 371,-34 363,-33"/>
<polygon style="fill:black;stroke:black;" points="363.492,-29.5292 353,-31 362.119,-36.3933 363.492,-29.5292"/>
</g>
<!-- 11 -->
<g id="node56" class="node"><title>11</title>
<ellipse style="fill:none;stroke:black;" cx="467" cy="-18" rx="71.0724" ry="18"/>
<text text-anchor="middle" x="467" y="-13.9" style="font-family:Times New Roman;font-size:14.00;">7 &#45; 0.000 lbs</text>
</g>
<!-- 8&#45;&gt;11 -->
<g id="edge56" class="edge"><title>8&#45;&gt;11</title>
<path style="fill:none;stroke:black;" d="M952,-83C853,-75 688,-59 547,-36 541,-35 535,-34 529,-33"/>
<polygon style="fill:black;stroke:black;" points="529.584,-29.5212 519,-30 527.573,-36.2259 529.584,-29.5212"/>
</g>
<!-- 12 -->
<g id="node58" class="node"><title>12</title>
<ellipse style="fill:none;stroke:black;" cx="646" cy="-18" rx="89.8356" ry="18"/>
<text text-anchor="middle" x="646" y="-13.9" style="font-family:Times New Roman;font-size:14.00;">1100 &#45; 0.000 lbs</text>
</g>
<!-- 8&#45;&gt;12 -->
<g id="edge58" class="edge"><title>8&#45;&gt;12</title>
<path style="fill:none;stroke:black;" d="M972,-77C902,-65 794,-45 722,-32"/>
<polygon style="fill:black;stroke:black;" points="722.492,-28.5292 712,-30 721.119,-35.3933 722.492,-28.5292"/>
</g>
<!-- 13 -->
<g id="node60" class="node"><title>13</title>
<ellipse style="fill:none;stroke:black;" cx="844" cy="-18" rx="89.8356" ry="18"/>
<text text-anchor="middle" x="844" y="-13.9" style="font-family:Times New Roman;font-size:14.00;">1099 &#45; 0.000 lbs</text>
</g>
<!-- 8&#45;&gt;13 -->
<g id="edge60" class="edge"><title>8&#45;&gt;13</title>
<path style="fill:none;stroke:black;" d="M997,-74C967,-63 928,-49 897,-37"/>
<polygon style="fill:black;stroke:black;" points="897.584,-33.5212 887,-34 895.573,-40.2259 897.584,-33.5212"/>
</g>
<!-- 14 -->
<g id="node62" class="node"><title>14</title>
<ellipse style="fill:none;stroke:black;" cx="1042" cy="-18" rx="89.8356" ry="18"/>
<text text-anchor="middle" x="1042" y="-13.9" style="font-family:Times New Roman;font-size:14.00;">1098 &#45; 0.000 lbs</text>
</g>
<!-- 8&#45;&gt;14 -->
<g id="edge62" class="edge"><title>8&#45;&gt;14</title>
<path style="fill:none;stroke:black;" d="M1041,-72C1042,-64 1042,-55 1042,-46"/>
<polygon style="fill:black;stroke:black;" points="1045.5,-46 1042,-36 1038.5,-46 1045.5,-46"/>
</g>
<!-- 15 -->
<g id="node64" class="node"><title>15</title>
<ellipse style="fill:none;stroke:black;" cx="1234" cy="-18" rx="84.0808" ry="18"/>
<text text-anchor="middle" x="1234" y="-13.9" style="font-family:Times New Roman;font-size:14.00;">527 &#45; 0.000 lbs</text>
</g>
<!-- 8&#45;&gt;15 -->
<g id="edge64" class="edge"><title>8&#45;&gt;15</title>
<path style="fill:none;stroke:black;" d="M1084,-74C1113,-63 1152,-49 1182,-38"/>
<polygon style="fill:black;stroke:black;" points="1184.02,-40.9636 1192,-34 1181.42,-34.4643 1184.02,-40.9636"/>
</g>
<!-- 16 -->
<g id="node66" class="node"><title>16</title>
<ellipse style="fill:none;stroke:black;" cx="1420" cy="-18" rx="84.0808" ry="18"/>
<text text-anchor="middle" x="1420" y="-13.9" style="font-family:Times New Roman;font-size:14.00;">128 &#45; 0.000 lbs</text>
</g>
<!-- 8&#45;&gt;16 -->
<g id="edge66" class="edge"><title>8&#45;&gt;16</title>
<path style="fill:none;stroke:black;" d="M1109,-77C1166,-66 1252,-50 1327,-36 1334,-35 1340,-33 1347,-32"/>
<polygon style="fill:black;stroke:black;" points="1347.88,-35.3933 1357,-30 1346.51,-28.5292 1347.88,-35.3933"/>
</g>
<!-- 17 -->
<g id="node68" class="node"><title>17</title>
<ellipse style="fill:none;stroke:black;" cx="1612" cy="-18" rx="89.8356" ry="18"/>
<text text-anchor="middle" x="1612" y="-13.9" style="font-family:Times New Roman;font-size:14.00;">4714 &#45; 0.000 lbs</text>
</g>
<!-- 8&#45;&gt;17 -->
<g id="edge68" class="edge"><title>8&#45;&gt;17</title>
<path style="fill:none;stroke:black;" d="M1110,-77C1122,-75 1134,-74 1146,-72 1308,-50 1350,-58 1513,-36 1521,-35 1528,-33 1536,-32"/>
<polygon style="fill:black;stroke:black;" points="1536.88,-35.3933 1546,-30 1535.51,-28.5292 1536.88,-35.3933"/>
</g>
<!-- 18 -->
<g id="node70" class="node"><title>18</title>
<ellipse style="fill:none;stroke:black;" cx="1804" cy="-18" rx="84.0808" ry="18"/>
<text text-anchor="middle" x="1804" y="-13.9" style="font-family:Times New Roman;font-size:14.00;">758 &#45; 0.001 lbs</text>
</g>
<!-- 8&#45;&gt;18 -->
<g id="edge70" class="edge"><title>8&#45;&gt;18</title>
<path style="fill:none;stroke:black;" d="M1108,-77C1121,-75 1134,-73 1146,-72 1395,-42 1461,-67 1711,-36 1718,-35 1726,-34 1733,-33"/>
<polygon style="fill:black;stroke:black;" points="1733.88,-36.3933 1743,-31 1732.51,-29.5292 1733.88,-36.3933"/>
</g>
<!-- 26 -->
<g id="node72" class="node"><title>26</title>
<ellipse style="fill:none;stroke:black;" cx="1996" cy="-18" rx="84.0808" ry="18"/>
<text text-anchor="middle" x="1996" y="-13.9" style="font-family:Times New Roman;font-size:14.00;">527 &#45; 0.000 lbs</text>
</g>
<!-- 25&#45;&gt;26 -->
<g id="edge72" class="edge"><title>25&#45;&gt;26</title>
<path style="fill:none;stroke:black;" d="M2304,-78C2247,-67 2163,-50 2089,-36 2082,-35 2075,-33 2068,-32"/>
<polygon style="fill:black;stroke:black;" points="2068.49,-28.5292 2058,-30 2067.12,-35.3933 2068.49,-28.5292"/>
</g>
<!-- 27 -->
<g id="node74" class="node"><title>27</title>
<ellipse style="fill:none;stroke:black;" cx="2182" cy="-18" rx="84.0808" ry="18"/>
<text text-anchor="middle" x="2182" y="-13.9" style="font-family:Times New Roman;font-size:14.00;">141 &#45; 0.000 lbs</text>
</g>
<!-- 25&#45;&gt;27 -->
<g id="edge74" class="edge"><title>25&#45;&gt;27</title>
<path style="fill:none;stroke:black;" d="M2327,-74C2299,-63 2262,-49 2232,-38"/>
<polygon style="fill:black;stroke:black;" points="2233.56,-34.8631 2223,-34 2230.72,-41.2598 2233.56,-34.8631"/>
</g>
<!-- 28 -->
<g id="node76" class="node"><title>28</title>
<ellipse style="fill:none;stroke:black;" cx="2368" cy="-18" rx="84.0808" ry="18"/>
<text text-anchor="middle" x="2368" y="-13.9" style="font-family:Times New Roman;font-size:14.00;">143 &#45; 0.000 lbs</text>
</g>
<!-- 25&#45;&gt;28 -->
<g id="edge76" class="edge"><title>25&#45;&gt;28</title>
<path style="fill:none;stroke:black;" d="M2369,-72C2368,-64 2368,-55 2368,-46"/>
<polygon style="fill:black;stroke:black;" points="2371.5,-46 2368,-36 2364.5,-46 2371.5,-46"/>
</g>
<!-- 29 -->
<g id="node78" class="node"><title>29</title>
<ellipse style="fill:none;stroke:black;" cx="2554" cy="-18" rx="84.0808" ry="18"/>
<text text-anchor="middle" x="2554" y="-13.9" style="font-family:Times New Roman;font-size:14.00;">142 &#45; 0.000 lbs</text>
</g>
<!-- 25&#45;&gt;29 -->
<g id="edge78" class="edge"><title>25&#45;&gt;29</title>
<path style="fill:none;stroke:black;" d="M2411,-74C2438,-63 2475,-49 2505,-38"/>
<polygon style="fill:black;stroke:black;" points="2506.28,-41.2598 2514,-34 2503.44,-34.8631 2506.28,-41.2598"/>
</g>
<!-- 30 -->
<g id="node80" class="node"><title>30</title>
<ellipse style="fill:none;stroke:black;" cx="2740" cy="-18" rx="84.0808" ry="18"/>
<text text-anchor="middle" x="2740" y="-13.9" style="font-family:Times New Roman;font-size:14.00;">128 &#45; 0.000 lbs</text>
</g>
<!-- 25&#45;&gt;30 -->
<g id="edge80" class="edge"><title>25&#45;&gt;30</title>
<path style="fill:none;stroke:black;" d="M2434,-77C2499,-65 2600,-45 2668,-32"/>
<polygon style="fill:black;stroke:black;" points="2668.88,-35.3933 2678,-30 2667.51,-28.5292 2668.88,-35.3933"/>
</g>
<!-- 31 -->
<g id="node82" class="node"><title>31</title>
<ellipse style="fill:none;stroke:black;" cx="2913" cy="-18" rx="71.0724" ry="18"/>
<text text-anchor="middle" x="2913" y="-13.9" style="font-family:Times New Roman;font-size:14.00;">7 &#45; 0.000 lbs</text>
</g>
<!-- 25&#45;&gt;31 -->
<g id="edge82" class="edge"><title>25&#45;&gt;31</title>
<path style="fill:none;stroke:black;" d="M2452,-83C2545,-74 2700,-58 2833,-36 2839,-35 2844,-34 2850,-32"/>
<polygon style="fill:black;stroke:black;" points="2850.88,-35.3933 2860,-30 2849.51,-28.5292 2850.88,-35.3933"/>
</g>
</g>
</svg>
